<svg xmlns="http://www.w3.org/2000/svg" width="20.303" height="20.303" viewBox="0 0 20.303 20.303">
  <g id="Icon_feather-instagram" data-name="Icon feather-instagram" transform="translate(1 1)">
    <path id="Path_92" data-name="Path 92" d="M7.576,3h9.151A4.576,4.576,0,0,1,21.3,7.576v9.151A4.576,4.576,0,0,1,16.727,21.3H7.576A4.576,4.576,0,0,1,3,16.727V7.576A4.576,4.576,0,0,1,7.576,3Z" transform="translate(-3 -3)" fill="none" stroke="#fff" stroke-linecap="round" stroke-linejoin="round" stroke-width="2"/>
    <path id="Path_93" data-name="Path 93" d="M19.346,15.059a3.661,3.661,0,1,1-3.084-3.084,3.661,3.661,0,0,1,3.084,3.084Z" transform="translate(-6.534 -6.484)" fill="none" stroke="#fff" stroke-linecap="round" stroke-linejoin="round" stroke-width="2"/>
    <path id="Path_94" data-name="Path 94" d="M26.25,9.75h0" transform="translate(-12.065 -5.632)" fill="none" stroke="#fff" stroke-linecap="round" stroke-linejoin="round" stroke-width="2"/>
  </g>
</svg>
