<svg id="Icon_ionic-ios-mail" data-name="Icon ionic-ios-mail" xmlns="http://www.w3.org/2000/svg" width="19.99" height="13.839" viewBox="0 0 19.99 13.839">
  <path id="Path_90" data-name="Path 90" d="M23.2,10.343l-5.17,5.267a.093.093,0,0,0,0,.135L21.649,19.6a.624.624,0,0,1,0,.884.626.626,0,0,1-.884,0l-3.6-3.839a.1.1,0,0,0-.139,0l-.879.894A3.869,3.869,0,0,1,13.384,18.7a3.947,3.947,0,0,1-2.816-1.2l-.846-.86a.1.1,0,0,0-.139,0l-3.6,3.839a.626.626,0,0,1-.884,0,.624.624,0,0,1,0-.884l3.618-3.854a.1.1,0,0,0,0-.135L3.538,10.343a.1.1,0,0,0-.163.067V20.949a1.542,1.542,0,0,0,1.538,1.538H21.827a1.542,1.542,0,0,0,1.538-1.538V10.411A.1.1,0,0,0,23.2,10.343Z" transform="translate(-3.375 -8.647)" fill="#fff"/>
  <path id="Path_91" data-name="Path 91" d="M13.639,16.673a2.612,2.612,0,0,0,1.879-.788l7.539-7.674a1.51,1.51,0,0,0-.951-.336H5.177a1.5,1.5,0,0,0-.951.336l7.539,7.674A2.613,2.613,0,0,0,13.639,16.673Z" transform="translate(-3.644 -7.875)" fill="#fff"/>
</svg>
