<svg xmlns="http://www.w3.org/2000/svg" width="18.459" height="18.458" viewBox="0 0 18.459 18.458">
  <path id="Icon_ionic-ios-call" data-name="Icon ionic-ios-call" d="M22.416,18.955a15.5,15.5,0,0,0-3.239-2.167c-.971-.466-1.326-.456-2.013.038-.572.413-.942.8-1.6.654A9.546,9.546,0,0,1,12.349,15.1,9.477,9.477,0,0,1,9.97,11.886c-.139-.663.245-1.028.654-1.6.495-.687.509-1.043.038-2.013A15.2,15.2,0,0,0,8.495,5.034c-.706-.706-.865-.553-1.254-.413a7.137,7.137,0,0,0-1.148.61A3.464,3.464,0,0,0,4.713,6.687c-.274.591-.591,1.691,1.024,4.565a25.472,25.472,0,0,0,4.478,5.973h0l0,0,0,0h0A25.572,25.572,0,0,0,16.2,21.713c2.874,1.615,3.974,1.3,4.565,1.024a3.405,3.405,0,0,0,1.456-1.379,7.137,7.137,0,0,0,.61-1.148C22.968,19.82,23.127,19.661,22.416,18.955Z" transform="translate(-4.49 -4.502)" fill="#fff"/>
</svg>
